<?xml version="1.0" encoding="UTF-8"?>
<svg xmlns="http://www.w3.org/2000/svg" width="24" height="24" viewBox="0 0 24 24" fill="none" stroke="#9A6735" stroke-width="2" stroke-linecap="round" stroke-linejoin="round">
  <circle cx="12" cy="12" r="10"/>
  <path d="M8 14s1.5 2 4 2 4-2 4-2"/>
  <line x1="9" y1="9" x2="9.01" y2="9"/>
  <line x1="15" y1="9" x2="15.01" y2="9"/>
  <path d="M9 4.5V2"/>
  <path d="M15 4.5V2"/>
  <path d="M12 2v2"/>
  <path d="M12 17v3"/>
  <path d="M6 12H3"/>
  <path d="M21 12h-3"/>
  <path d="M13 12a1 1 0 1 1-2 0 1 1 0 0 1 2 0z"/>
  <path d="M7.5 8.5c1-1 2.5-1.5 4.5-1.5s3.5.5 4.5 1.5"/>
  <path d="M7 15.5c1 1 2.5 1.5 4.5 1.5s3.5-.5 4.5-1.5"/>
</svg>