<?xml version="1.0" encoding="UTF-8"?>
<svg xmlns="http://www.w3.org/2000/svg" width="24" height="24" viewBox="0 0 24 24" fill="none" stroke="#C1E899" stroke-width="2" stroke-linecap="round" stroke-linejoin="round">
  <circle cx="12" cy="12" r="10"/>
  <path d="M12 6v6l4 2"/>
  <path d="M8.5 10.5c.5-1 1.5-2 3.5-2 2 0 3.5 1.5 3.5 3.5 0 1.5-1 2.5-2 3l-1.5.5c-1 .5-1.5 1-1.5 2v.5"/>
  <path d="M8 16h8"/>
  <path d="M12 20v-1"/>
  <path d="M12 6V4"/>
  <path d="M16 8l1-1"/>
  <path d="M8 8L7 7"/>
  <path d="M16 16l1 1"/>
  <path d="M8 16l-1 1"/>
</svg>