<svg xmlns="http://www.w3.org/2000/svg" width="800" height="600" viewBox="0 0 800 600">
  <rect width="100%" height="100%" fill="#f0f9ff"/>
  <g transform="translate(400, 300)">
    <!-- Budget App Dashboard Visualization -->
    <rect x="-350" y="-250" width="700" height="500" rx="20" ry="20" fill="#ffffff" stroke="#3b82f6" stroke-width="4"/>
    
    <!-- Header -->
    <rect x="-330" y="-230" width="660" height="80" rx="10" ry="10" fill="#3b82f6" opacity="0.9"/>
    <text x="-310" y="-180" font-family="Arial" font-size="24" fill="white">Budget Dashboard</text>
    
    <!-- Sidebar -->
    <rect x="-330" y="-140" width="150" height="370" rx="10" ry="10" fill="#f3f4f6"/>
    <circle cx="-255" cy="-100" r="30" fill="#4f46e5" opacity="0.8"/>
    <rect x="-300" y="-50" width="90" height="10" rx="5" ry="5" fill="#4b5563"/>
    <rect x="-300" y="-30" width="90" height="10" rx="5" ry="5" fill="#4b5563"/>
    <rect x="-300" y="-10" width="90" height="10" rx="5" ry="5" fill="#4b5563"/>
    <rect x="-300" y="10" width="90" height="10" rx="5" ry="5" fill="#4b5563"/>
    <rect x="-300" y="30" width="90" height="10" rx="5" ry="5" fill="#4b5563"/>
    
    <!-- Main Content Area - Expense Chart -->
    <rect x="-170" y="-140" width="320" height="180" rx="10" ry="10" fill="#eef2ff"/>
    <text x="-160" y="-120" font-family="Arial" font-size="16" fill="#374151">Expense Tracking</text>
    
    <!-- Bar chart -->
    <rect x="-150" y="-100" width="40" height="120" rx="5" ry="5" fill="#4f46e5" opacity="0.7"/>
    <rect x="-100" y="-70" width="40" height="90" rx="5" ry="5" fill="#10b981" opacity="0.7"/>
    <rect x="-50" y="-110" width="40" height="130" rx="5" ry="5" fill="#8b5cf6" opacity="0.7"/>
    <rect x="0" y="-50" width="40" height="70" rx="5" ry="5" fill="#3b82f6" opacity="0.7"/>
    <rect x="50" y="-80" width="40" height="100" rx="5" ry="5" fill="#10b981" opacity="0.7"/>
    <rect x="100" y="-60" width="40" height="80" rx="5" ry="5" fill="#8b5cf6" opacity="0.7"/>
    
    <!-- Budget Goals Section -->
    <rect x="160" y="-140" width="170" height="370" rx="10" ry="10" fill="#ecfdf5"/>
    <text x="170" y="-120" font-family="Arial" font-size="16" fill="#374151">Savings Goals</text>
    
    <!-- Goal Progress Circles -->
    <circle cx="245" cy="-70" r="40" fill="none" stroke="#d1d5db" stroke-width="8"/>
    <path d="M 245 -110 A 40 40 0 0 1 281.6 -52.8" fill="none" stroke="#10b981" stroke-width="8"/>
    <text x="245" y="-65" font-family="Arial" font-size="12" fill="#374151" text-anchor="middle">75%</text>
    
    <circle cx="245" cy="20" r="40" fill="none" stroke="#d1d5db" stroke-width="8"/>
    <path d="M 245 -20 A 40 40 0 1 1 205 20" fill="none" stroke="#3b82f6" stroke-width="8"/>
    <text x="245" y="25" font-family="Arial" font-size="12" fill="#374151" text-anchor="middle">92%</text>
    
    <circle cx="245" cy="110" r="40" fill="none" stroke="#d1d5db" stroke-width="8"/>
    <path d="M 245 70 A 40 40 0 0 1 285 110" fill="none" stroke="#8b5cf6" stroke-width="8"/>
    <text x="245" y="115" font-family="Arial" font-size="12" fill="#374151" text-anchor="middle">25%</text>
    
    <!-- Recent Transactions -->
    <rect x="-170" y="50" width="320" height="180" rx="10" ry="10" fill="#f5f3ff"/>
    <text x="-160" y="70" font-family="Arial" font-size="16" fill="#374151">Recent Transactions</text>
    
    <!-- Transaction Items -->
    <rect x="-150" y="90" width="280" height="30" rx="5" ry="5" fill="#ffffff" stroke="#e5e7eb" stroke-width="1"/>
    <rect x="-150" y="130" width="280" height="30" rx="5" ry="5" fill="#ffffff" stroke="#e5e7eb" stroke-width="1"/>
    <rect x="-150" y="170" width="280" height="30" rx="5" ry="5" fill="#ffffff" stroke="#e5e7eb" stroke-width="1"/>
  </g>
  <text x="400" y="580" font-family="Arial" font-size="24" fill="#374151" text-anchor="middle">Budget App Dashboard - 8069125</text>
</svg>